<svg xmlns="http://www.w3.org/2000/svg" viewBox="0 0 120.47 131.14"><defs><style>.cls-1{fill:#231f20;stroke:#231f20;stroke-miterlimit:10;stroke-width:2px;}.cls-1,.cls-3,.cls-4{stroke-linecap:round;}.cls-2{fill:#f1f2f2;}.cls-2,.cls-4{fill-rule:evenodd;}.cls-3,.cls-4{fill:none;stroke:#fff;stroke-linejoin:round;}</style></defs><g id="Layer_2" data-name="Layer 2"><g id="Layer_9" data-name="Layer 9"><path class="cls-1" d="M67.43,4A13.79,13.79,0,0,0,54.72,1.57C46.87,3.72,9.81,13.63,9.81,13.63S1.15,15.24,7.92,19,55,44.44,55,44.44s-.54,2.94,10.82,0,35.71-8.84,35.71-8.84,6.22-1.88,7.3,3.21-3.52,8-6.22,9.64S69.6,65,69.6,65s-5.41.61-5.14,11.32,0,49.3,0,49.3-1.9,6.69,7.3,1.6,40.58-23.3,40.58-23.3l4.87-3s2.32,2.41,2.24-15.8,0-43.67,0-43.67,1-8.84-10.63-14.2S67.43,4,67.43,4Z"/><path class="cls-1" d="M12.52,31,4.94,35.84s-3.79.81-3.79,11.25v49s-1.62,4.28,5.68,8.57,43.56,23.84,43.56,23.84,4.87,6.16,5.14-5.62,0-37.24,0-37.24l.12-12s1-4.17-6.61-8.11-34.9-19.75-34.9-19.75-5.68-1.61,2.16-5.9,10-5.36,5.14-8.84A7.23,7.23,0,0,0,12.52,31Z"/><g id="layer1"><g id="g4241"><path id="rect3007" class="cls-2" d="M96.08,64.57l-7.81,3.81c-1.89.9-2.2,3.75-3,6.12-.76.39-.92.45-1.69.84l0,2.81L75.84,82l.07,8.68,8.38-4.39,0-3.76,2.81-1.44,0,3.73L98,79.16l0-3.64,2.63-1.35.05,3.61,6.93-3.63-.12-8L101,69.41l0-2.7-2.09,1c-.54-1.68-1.64-3.75-2.82-3.18ZM88.9,71.13,95.51,68l1.74,1.68-10.07,5,1.72-3.59Zm9.59,5a.11.11,0,0,0,0,.06l.09,7.2s0,0,0,0l1.54-.82a.08.08,0,0,0,0,0l-.09-7.18s0,0,0,0ZM84.83,83.21l.07,7.52,1.69-.9-.08-7.49Zm-8,9L77,112.39l30.36-17.48-.28-18.72-6.43,3.4,0,3.61-2.64,1.42L98,81,87.12,86.72l0,3.75L84.35,92l0-3.77-7.5,4Z"/></g></g><path id="path1104" class="cls-3" d="M11.05,58c-.39-.18-.72.05-.73.5l-.46,36A2.58,2.58,0,0,0,11,96.62l.19.11s.07.09.12.12l29.75,16.86c.76.44,1.49.2,1.63-.49l4.8-24a2,2,0,0,0-1.14-2l-3.9-1.94.08-6.92a2.63,2.63,0,0,0-1.36-2.16L28.93,70.35l0-3a1.48,1.48,0,0,0-.77-1.23L11.05,58Z"/><g id="g1099"><path id="path938" class="cls-4" d="M11.05,58.05c-.39-.18-.72.05-.72.5l-.47,36a2.54,2.54,0,0,0,1.16,2l29.72,16.84c.75.43,1.37.12,1.38-.7l.43-34.38a2.55,2.55,0,0,0-1.35-2.14L28.94,70.36l0-3a1.46,1.46,0,0,0-.77-1.24L11.05,58.05Z"/><path id="rect922" class="cls-4" d="M15.91,72a.91.91,0,0,0-1.42.59L10.37,95a1.91,1.91,0,0,0,1,1.84L41.1,113.71c.76.43,1.49.22,1.63-.47l4.8-24a2,2,0,0,0-1.16-2Z"/><path id="path705" class="cls-4" d="M20.05,93.91l1.28,2.73,3.2-.37,2,2.21,0,3.67,2.42,1.33,1.47-3,2.5.36,2.48,3.46,1.83-1.1L34.6,98.32c-10.08,3-14.37-12.25-6.3-13.47l.4-1.75h-.93l-2.19-3-2.09.57,1,3.56L23,86l-3.18-1.09-.54,2.34,2.95,2.5.38,2.62Z"/></g></g></g></svg>