<svg xmlns="http://www.w3.org/2000/svg" viewBox="0 0 120.47 131.14"><defs><style>.cls-1,.cls-4{fill:#fff;}.cls-1{stroke:#414042;stroke-miterlimit:10;stroke-width:2px;}.cls-1,.cls-3,.cls-4,.cls-5{stroke-linecap:round;}.cls-2{fill:#11131c;}.cls-2,.cls-4,.cls-5{fill-rule:evenodd;}.cls-3{fill:none;stroke:#fff;}.cls-3,.cls-4,.cls-5{stroke-linejoin:round;}.cls-4,.cls-5{stroke:#010101;}.cls-5{fill:#010101;}</style></defs><g id="Layer_2" data-name="Layer 2"><g id="Layer_9" data-name="Layer 9"><path class="cls-1" d="M67.43,4A13.79,13.79,0,0,0,54.72,1.57C46.87,3.72,9.81,13.63,9.81,13.63S1.15,15.24,7.92,19,55,44.44,55,44.44s-.54,2.94,10.82,0,35.71-8.84,35.71-8.84,6.22-1.88,7.3,3.21-3.52,8-6.22,9.64S69.6,65,69.6,65s-5.41.61-5.14,11.32,0,49.3,0,49.3-1.9,6.69,7.3,1.6,40.58-23.3,40.58-23.3l4.87-3s2.32,2.41,2.24-15.8,0-43.67,0-43.67,1-8.84-10.63-14.2S67.43,4,67.43,4Z"/><path class="cls-1" d="M12.52,31,4.94,35.84s-3.79.81-3.79,11.25v49s-1.62,4.28,5.68,8.57,43.56,23.84,43.56,23.84,4.87,6.16,5.14-5.62,0-37.24,0-37.24l.12-12s1-4.17-6.61-8.11-34.9-19.75-34.9-19.75-5.68-1.61,2.16-5.9,10-5.36,5.14-8.84A7.23,7.23,0,0,0,12.52,31Z"/><g id="layer1"><g id="g4241"><path id="rect3007" class="cls-2" d="M96.9,63.37l-7.8,3.82c-1.9.9-2.21,3.75-3,6.11-.77.39-.93.45-1.69.84l0,2.82-7.79,3.88.07,8.67,8.37-4.38,0-3.76,2.81-1.45,0,3.74L98.81,78l0-3.63L101.39,73l0,3.61L108.38,73l-.12-8-6.41,3.22,0-2.69-2.1,1c-.54-1.69-1.64-3.75-2.82-3.19Zm-7.18,6.56,6.61-3.14,1.75,1.68L88,73.53l1.72-3.6Zm9.6,5s0,0,0,0l.1,7.21s0,0,0,0L101,81.4s0,0,0-.06l-.09-7.18a0,0,0,0,0,0,0ZM85.65,82l.08,7.52,1.69-.91-.08-7.49Zm-8,9,.17,20.23,30.36-17.48L107.9,75l-6.44,3.39.05,3.62-2.63,1.41,0-3.64L88,85.53l0,3.74-2.82,1.51,0-3.77-7.49,4Z"/></g></g><path id="path1104" class="cls-3" d="M10.14,58.56c-.39-.18-.72,0-.73.49L9,95.08a2.58,2.58,0,0,0,1.17,2l.19.11s.07.1.12.13l29.75,16.86c.76.43,1.49.2,1.63-.5l4.8-24a2,2,0,0,0-1.14-2l-3.9-2,.08-6.91a2.61,2.61,0,0,0-1.36-2.16L28,70.86l0-3a1.49,1.49,0,0,0-.77-1.24l-17.15-8Z"/><g id="g1099"><path id="path938" class="cls-4" d="M10.14,58.57c-.39-.18-.72,0-.72.5L9,95.09a2.54,2.54,0,0,0,1.16,2L39.83,114c.75.43,1.37.11,1.38-.71l.43-34.38a2.53,2.53,0,0,0-1.35-2.13L28,70.87l0-3a1.47,1.47,0,0,0-.77-1.24L10.14,58.57Z"/><path id="rect922" class="cls-4" d="M15,72.56c-.68-.34-1.31-.08-1.43.58L9.46,95.52a1.9,1.9,0,0,0,1,1.83l29.76,16.88c.76.43,1.49.22,1.63-.48l4.8-24a2,2,0,0,0-1.16-2Z"/><path id="path705" class="cls-5" d="M19.14,94.43l1.28,2.72,3.2-.36,2,2.21,0,3.67L28,104l1.47-3,2.5.36,2.48,3.45,1.83-1.09-2.61-4.89c-10.08,3-14.37-12.26-6.3-13.47l.4-1.76h-.93l-2.19-3-2.09.56,1,3.56-1.41,1.76L19,85.46l-.54,2.34,2.95,2.49.38,2.63Z"/></g></g></g></svg>